<svg xmlns="http://www.w3.org/2000/svg" width="880" height="34" viewBox="0 0 880 34" role="img" aria-label="about this page" font-kerning="none"><title>about this page</title><g transform="translate(0.00 22.00) scale(0.017000 -0.017000)"><path fill="#e6edf3" d="M229.0 -10.0Q147.0 -10.0 99.0 37.5Q51.0 85.0 51.0 162.0Q51.0 245.0 110.0 293.0Q169.0 341.0 276.0 341.0H384.0V376.0Q384.0 407.0 362.5 424.5Q341.0 442.0 301.0 442.0Q263.0 442.0 240.5 427.0Q218.0 412.0 216.0 383.0H74.0Q77.0 464.0 138.0 512.0Q199.0 560.0 303.0 560.0Q412.0 560.0 473.0 510.0Q534.0 460.0 534.0 370.0V0.0H389.0V95.0Q379.0 46.0 336.5 18.0Q294.0 -10.0 229.0 -10.0ZM282.0 110.0Q329.0 110.0 356.5 133.5Q384.0 157.0 384.0 195.0V251.0H279.0Q239.0 251.0 217.5 231.5Q196.0 212.0 196.0 181.0Q196.0 150.0 218.5 130.0Q241.0 110.0 282.0 110.0ZM1103.2 -10.0Q1048.2 -10.0 1009.2 18.5Q970.2 47.0 952.2 99.0V0.0H807.2V730.0H957.2V580.0L953.2 454.0Q971.2 505.0 1009.7 532.5Q1048.2 560.0 1103.2 560.0Q1183.2 560.0 1232.2 501.5Q1281.2 443.0 1281.2 345.0V205.0Q1281.2 107.0 1232.2 48.5Q1183.2 -10.0 1103.2 -10.0ZM1045.2 120.0Q1086.2 120.0 1108.7 143.5Q1131.2 167.0 1131.2 210.0V340.0Q1131.2 384.0 1108.7 407.0Q1086.2 430.0 1045.2 430.0Q1002.2 430.0 979.7 405.5Q957.2 381.0 957.2 335.0V215.0Q957.2 169.0 979.7 144.5Q1002.2 120.0 1045.2 120.0ZM1782.4 -10.0Q1709.4 -10.0 1655.4 17.5Q1601.4 45.0 1571.9 94.5Q1542.4 144.0 1542.4 210.0V340.0Q1542.4 406.0 1571.9 455.5Q1601.4 505.0 1655.4 532.5Q1709.4 560.0 1782.4 560.0Q1856.4 560.0 1909.9 532.5Q1963.4 505.0 1992.9 455.5Q2022.4 406.0 2022.4 340.0V210.0Q2022.4 144.0 1992.9 94.5Q1963.4 45.0 1909.9 17.5Q1856.4 -10.0 1782.4 -10.0ZM1782.4 120.0Q1826.4 120.0 1849.4 143.5Q1872.4 167.0 1872.4 210.0V340.0Q1872.4 384.0 1849.4 407.0Q1826.4 430.0 1782.4 430.0Q1739.4 430.0 1715.9 407.0Q1692.4 384.0 1692.4 340.0V210.0Q1692.4 167.0 1715.9 143.5Q1739.4 120.0 1782.4 120.0ZM2523.5 -10.0Q2412.5 -10.0 2350.0 50.0Q2287.5 110.0 2287.5 214.0V550.0H2437.5V215.0Q2437.5 120.0 2523.5 120.0Q2564.5 120.0 2587.0 144.5Q2609.5 169.0 2609.5 215.0V550.0H2759.5V214.0Q2759.5 109.0 2696.5 49.5Q2633.5 -10.0 2523.5 -10.0ZM3319.7 0.0Q3235.7 0.0 3187.7 48.0Q3139.7 96.0 3139.7 180.0V415.0H2991.7V550.0H3139.7V705.0H3289.7V550.0H3504.7V415.0H3289.7V185.0Q3289.7 163.0 3301.2 149.0Q3312.7 135.0 3334.7 135.0H3499.7V0.0ZM4802.1 0.0Q4718.1 0.0 4670.1 48.0Q4622.1 96.0 4622.1 180.0V415.0H4474.1V550.0H4622.1V705.0H4772.1V550.0H4987.1V415.0H4772.1V185.0Q4772.1 163.0 4783.6 149.0Q4795.1 135.0 4817.1 135.0H4982.1V0.0ZM5254.2 0.0V730.0H5404.2V550.0L5399.2 451.0Q5412.2 501.0 5451.7 530.5Q5491.2 560.0 5547.2 560.0Q5627.2 560.0 5675.7 504.0Q5724.2 448.0 5724.2 355.0V0.0H5574.2V340.0Q5574.2 383.0 5551.7 406.5Q5529.2 430.0 5489.2 430.0Q5449.2 430.0 5426.7 406.5Q5404.2 383.0 5404.2 340.0V0.0ZM5999.4 0.0V135.0H6181.4V415.0H6019.4V550.0H6331.4V135.0H6489.4V0.0ZM6249.4 637.0Q6208.4 637.0 6183.9 658.0Q6159.4 679.0 6159.4 715.0Q6159.4 751.0 6183.9 772.0Q6208.4 793.0 6249.4 793.0Q6290.4 793.0 6314.9 772.0Q6339.4 751.0 6339.4 715.0Q6339.4 679.0 6314.9 658.0Q6290.4 637.0 6249.4 637.0ZM6947.6 -10.0Q6879.6 -10.0 6828.6 11.5Q6777.6 33.0 6749.1 71.0Q6720.6 109.0 6720.6 160.0H6867.6Q6867.6 132.0 6888.6 118.0Q6909.6 104.0 6947.6 104.0H6991.6Q7032.6 104.0 7055.1 118.0Q7077.6 132.0 7077.6 158.0Q7077.6 183.0 7059.6 194.5Q7041.6 206.0 7004.6 210.0L6878.6 225.0Q6805.6 234.0 6766.6 279.5Q6727.6 325.0 6727.6 393.0Q6727.6 560.0 6941.6 560.0H6988.6Q7089.6 560.0 7149.6 516.0Q7209.6 472.0 7209.6 398.0H7062.6Q7062.6 422.0 7043.1 435.0Q7023.6 448.0 6988.6 448.0H6941.6Q6906.6 448.0 6888.6 435.0Q6870.6 422.0 6870.6 399.0Q6870.6 376.0 6888.1 368.0Q6905.6 360.0 6937.6 356.0L7057.6 341.0Q7138.6 331.0 7179.6 284.0Q7220.6 237.0 7220.6 160.0Q7220.6 79.0 7162.6 34.5Q7104.6 -10.0 6991.6 -10.0ZM8218.9 -180.0V550.0H8363.9V450.0Q8381.9 502.0 8420.9 531.0Q8459.9 560.0 8514.9 560.0Q8567.9 560.0 8607.9 532.5Q8647.9 505.0 8670.4 457.0Q8692.9 409.0 8692.9 345.0V205.0Q8692.9 142.0 8670.4 93.5Q8647.9 45.0 8607.9 17.5Q8567.9 -10.0 8514.9 -10.0Q8460.9 -10.0 8421.9 18.5Q8382.9 47.0 8364.9 98.0L8368.9 -30.0V-180.0ZM8456.9 120.0Q8497.9 120.0 8520.4 143.5Q8542.9 167.0 8542.9 210.0V340.0Q8542.9 384.0 8520.4 407.0Q8497.9 430.0 8456.9 430.0Q8413.9 430.0 8391.4 405.5Q8368.9 381.0 8368.9 335.0V215.0Q8368.9 169.0 8391.4 144.5Q8413.9 120.0 8456.9 120.0ZM9123.1 -10.0Q9041.1 -10.0 8993.1 37.5Q8945.1 85.0 8945.1 162.0Q8945.1 245.0 9004.1 293.0Q9063.1 341.0 9170.1 341.0H9278.1V376.0Q9278.1 407.0 9256.6 424.5Q9235.1 442.0 9195.1 442.0Q9157.1 442.0 9134.6 427.0Q9112.1 412.0 9110.1 383.0H8968.1Q8971.1 464.0 9032.1 512.0Q9093.1 560.0 9197.1 560.0Q9306.1 560.0 9367.1 510.0Q9428.1 460.0 9428.1 370.0V0.0H9283.1V95.0Q9273.1 46.0 9230.6 18.0Q9188.1 -10.0 9123.1 -10.0ZM9176.1 110.0Q9223.1 110.0 9250.6 133.5Q9278.1 157.0 9278.1 195.0V251.0H9173.1Q9133.1 251.0 9111.6 231.5Q9090.1 212.0 9090.1 181.0Q9090.1 150.0 9112.6 130.0Q9135.1 110.0 9176.1 110.0ZM9780.3 -180.0V-60.0H9935.3Q9977.3 -60.0 9999.8 -39.0Q10022.3 -18.0 10022.3 19.0V40.0L10023.3 122.0Q10003.3 78.0 9966.3 54.0Q9929.3 30.0 9878.3 30.0Q9795.3 30.0 9745.3 88.0Q9695.3 146.0 9695.3 245.0V345.0Q9695.3 443.0 9745.3 501.5Q9795.3 560.0 9878.3 560.0Q9930.3 560.0 9967.3 535.5Q10004.3 511.0 10024.3 467.0V550.0H10169.3V14.0Q10169.3 -76.0 10107.8 -128.0Q10046.3 -180.0 9940.3 -180.0ZM9932.3 160.0Q9973.3 160.0 9996.3 183.5Q10019.3 207.0 10019.3 250.0V340.0Q10019.3 383.0 9996.3 406.5Q9973.3 430.0 9932.3 430.0Q9890.3 430.0 9867.8 406.5Q9845.3 383.0 9845.3 340.0V250.0Q9845.3 207.0 9867.8 183.5Q9890.3 160.0 9932.3 160.0ZM10677.5 -10.0Q10604.5 -10.0 10550.0 17.5Q10495.5 45.0 10466.0 94.5Q10436.5 144.0 10436.5 210.0V340.0Q10436.5 406.0 10466.0 455.5Q10495.5 505.0 10550.0 532.5Q10604.5 560.0 10677.5 560.0Q10750.5 560.0 10804.0 532.5Q10857.5 505.0 10887.0 455.5Q10916.5 406.0 10916.5 340.0V238.0H10579.5V210.0Q10579.5 158.0 10604.0 134.0Q10628.5 110.0 10677.5 110.0Q10709.5 110.0 10733.5 120.0Q10757.5 130.0 10761.5 150.0H10908.5Q10892.5 78.0 10829.5 34.0Q10766.5 -10.0 10677.5 -10.0ZM10579.5 340.0V327.0L10773.5 329.0V342.0Q10773.5 393.0 10750.0 421.0Q10726.5 449.0 10677.5 449.0Q10628.5 449.0 10604.0 420.0Q10579.5 391.0 10579.5 340.0Z"/></g><rect x="204.6" y="17.0" width="0" height="1" fill="#30363d"><animate attributeName="width" from="0" to="675.4" begin="0.15s" dur="0.7s" calcMode="spline" keySplines="0.16 1 0.3 1" fill="freeze"/></rect></svg>
